<?xml version="1.0" standalone="no"?>
<!DOCTYPE svg PUBLIC "-//W3C//DTD SVG 20010904//EN"
 "http://www.w3.org/TR/2001/REC-SVG-20010904/DTD/svg10.dtd">
<svg version="1.0" xmlns="http://www.w3.org/2000/svg"
 width="512.000000pt" height="512.000000pt" viewBox="0 0 512.000000 512.000000"
 preserveAspectRatio="xMidYMid meet">

<g transform="translate(0.000000,512.000000) scale(0.100000,-0.100000)"
fill="#000000" stroke="none">
<path d="M1335 4215 c-59 -21 -110 -81 -124 -144 -7 -35 -11 -242 -11 -631 l0
-579 268 4 c237 3 506 24 533 41 13 7 12 1077 -1 1145 -13 70 -50 123 -103
151 -40 22 -54 23 -282 25 -189 2 -248 0 -280 -12z"/>
<path d="M2959 2457 c-139 -95 -356 -193 -545 -247 l-81 -23 62 -96 c34 -53
180 -292 325 -531 360 -595 379 -624 432 -652 42 -23 49 -23 349 -23 l305 0
43 28 c72 48 98 136 67 225 -8 23 -79 139 -159 259 -142 216 -328 507 -574
902 -71 113 -132 206 -138 207 -5 1 -44 -21 -86 -49z"/>
<path d="M1930 2117 c-36 -6 -215 -11 -398 -11 l-333 -1 3 -545 c3 -531 4
-546 24 -585 15 -28 35 -47 70 -65 47 -24 55 -25 289 -28 252 -4 293 1 349 41
16 11 38 41 50 66 20 45 21 60 24 585 2 296 -1 542 -5 546 -4 3 -37 2 -73 -3z"/>
</g>
</svg>
