<svg xmlns="http://www.w3.org/2000/svg" viewBox="0 0 24 24"><defs><style>.a{fill:none;stroke:#000;stroke-linecap:round;stroke-linejoin:round;}</style></defs><title>messages-people-person-bubble-oval</title><path class="a" d="M13.5,9.5h1v2l2.5-2h2a4.5,4.5,0,0,0,0-9H13A4.5,4.5,0,0,0,8.5,5" id="id_101" style="stroke: rgb(49, 112, 48);"></path><path class="a" d="M.5,23.5a8.719,8.719,0,0,1,.7-3.322c.49-.981,2.539-1.661,5.111-2.613.695-.258.581-2.074.273-2.413a5.127,5.127,0,0,1-1.336-3.978A3.354,3.354,0,0,1,8.5,7.5a3.354,3.354,0,0,1,3.256,3.674,5.127,5.127,0,0,1-1.336,3.978c-.308.339-.422,2.155.273,2.413,2.572.952,4.621,1.632,5.111,2.613a8.719,8.719,0,0,1,.7,3.322Z" id="id_102" style="stroke: rgb(51, 115, 50);"></path><path d="M19,4.25a.75.75,0,1,0,.75.75A.75.75,0,0,0,19,4.25Z" id="id_103" style="fill: rgb(48, 112, 47);"></path><path d="M16,4.25a.75.75,0,1,0,.75.75A.75.75,0,0,0,16,4.25Z" id="id_104" style="fill: rgb(47, 107, 46);"></path><path d="M13,4.25a.75.75,0,1,0,.75.75A.75.75,0,0,0,13,4.25Z" id="id_105" style="fill: rgb(45, 112, 43);"></path></svg>