<svg xmlns="http://www.w3.org/2000/svg" viewBox="0 0 24 24"><defs><style>.a{fill:none;stroke:#000;stroke-linecap:round;stroke-linejoin:round;}</style></defs><title>headphones-human</title><path class="a" d="M10.1,1.578c-4.865.61-9,4.708-9,9.672a9.725,9.725,0,0,0,4,7.861V23.5" id="id_101" style="stroke: rgb(54, 107, 53);"></path><path class="a" d="M15.1,23.5v-2h2a3,3,0,0,0,3-3v-3h2.311a.5.5,0,0,0,.474-.654C20.97,8.932,19.6,2.571,13.1,1.621" id="id_102" style="stroke: rgb(52, 107, 51);"></path><rect class="a" x="10.095" y="0.5" width="3" height="9" rx="1" ry="1" transform="translate(23.19 10) rotate(-180)" id="id_103" style="stroke: rgb(52, 102, 51);"></rect><circle class="a" cx="11.595" cy="13" r="1.5" id="id_104" style="stroke: rgb(53, 102, 52);"></circle><path class="a" d="M10.125,8.745a4.5,4.5,0,1,0,2.939,0" id="id_105" style="stroke: rgb(52, 102, 51);"></path></svg>